<?xml version="1.0" encoding="UTF-8" standalone="no"?>
<svg
   xmlns="http://www.w3.org/2000/svg"
   version="1.1"
   id="Ebene_1"
   width="40"
   height="40"
   viewBox="0 0 40 40"
   xml:space="preserve">
	<defs id="defs281" />
	<g id="g276" transform="matrix(0.27692308,0,0,0.32910075,-45.076922,-1.5539146)">
		<path
				fill-rule="evenodd"
				clip-rule="evenodd"
				fill="#f39200"
				id="path256"
				d="m 170,106.60721 c 26.971,0.001 12.931,8e-4 14.999,-0.0192 5.608,-0.056 10.708,-0.456 15.383,-1.171 l -10.121,7.163 10.121,7.368 c -1.755,0.12 -3.523,0.205 -5.318,0.212 -2.816,0.01 26.97877,-0.0379 -4.79423,-0.0389 L 170,120.18786" />
		<linearGradient
				id="SVGID_1_"
				gradientUnits="userSpaceOnUse"
				x1="244.66701"
				y1="-72.260696"
				x2="296.5498"
				y2="-72.260696"
				gradientTransform="rotate(180,248.1084,15.73925)">
			<stop
					offset="0"
					style="stop-color:#E94E1B"
					id="stop258" />
			<stop
					offset="1"
					style="stop-color:#F39200"
					id="stop260" />
		</linearGradient>
		<path
				fill-rule="evenodd"
				clip-rule="evenodd"
				fill="url(#SVGID_1_)"
				d="m 209.831,119.58 c 15.738,-2.064 29.312,-8.538 37.619,-17.037 1.529,-1.564 2.969,-3.838 4.1,-6.436 -3.408,-2.871 -6.977,-5.582 -10.631,-8.209 -8.083,8.013 -17.711,13.813 -31.088,16.717 l -10.164,7.465 z"
				id="path263"
				style="fill:url(#SVGID_1_)" />
		<path
				fill-rule="evenodd"
				clip-rule="evenodd"
				fill="#be1622"
				d="M 300,25.178786 C 265.311,25.173786 286.332,24.991 283.812,25.016 c -5.608,0.056 -10.708,0.456 -15.383,1.171 l 10.121,-7.163 -10.121,-7.368 c 1.755,-0.12 10.81305,-0.378165 12.571,-0.398099 2.59826,-0.0937 4,0.220478 19,-0.459036 z"
				id="path265" />
		<linearGradient
				id="SVGID_2_"
				gradientUnits="userSpaceOnUse"
				x1="217.16701"
				y1="27.7393"
				x2="269.0498"
				y2="27.7393">
			<stop
					offset="0"
					style="stop-color:#E94E1B"
					id="stop267" />
			<stop
					offset="1"
					style="stop-color:#BE1622"
					id="stop269" />
		</linearGradient>
		<path
				fill-rule="evenodd"
				clip-rule="evenodd"
				fill="url(#SVGID_2_)"
				d="m 258.886,11.898 c -15.738,2.064 -29.312,8.538 -37.619,17.037 -1.529,1.564 -2.969,3.838 -4.1,6.436 3.408,2.871 6.977,5.582 10.631,8.209 8.083,-8.013 17.711,-13.813 31.088,-16.717 l 10.164,-7.465 z"
				id="path272"
				style="fill:url(#SVGID_2_)" />
		<path
				fill-rule="evenodd"
				clip-rule="evenodd"
				fill="#e94e1b"
				d="m 234.024,74.9 c 2.534,1.838 5.108,3.634 7.695,5.418 4.736,3.176 9.479,6.344 13.824,10.002 2.303,-6.348 2.021,-14.178 -2.254,-18.957 0.001,-0.006 0,-0.012 0,-0.02 -0.025,-0.023 -0.053,-0.047 -0.078,-0.07 -0.406,-0.443 -0.844,-0.863 -1.32,-1.25 -0.003,0.026 -0.01,0.049 -0.014,0.074 -3.441,-2.965 -7.159,-5.657 -10.898,-8.325 l -7.53,-5.383 c -2.636,-1.881 -5.285,-3.751 -7.859,-5.698 -4.228,-3.02 -8.356,-6.137 -12.255,-9.486 -2.748,6.949 -3.208,15.83 2.579,20.032 3.383,2.906 6.938,5.636 10.581,8.281 z"
				id="path274" />
	</g>
</svg>
